<?xml version="1.0" encoding="utf-8"?>
<!-- Generator: Adobe Illustrator 18.0.0, SVG Export Plug-In . SVG Version: 6.00 Build 0)  -->
<!DOCTYPE svg PUBLIC "-//W3C//DTD SVG 1.1//EN" "http://www.w3.org/Graphics/SVG/1.1/DTD/svg11.dtd">
<svg version="1.1" id="Layer_1" xmlns="http://www.w3.org/2000/svg" xmlns:xlink="http://www.w3.org/1999/xlink" x="0px" y="0px"
	 viewBox="0 0 56.1 62.9" enable-background="new 0 0 56.1 62.9" xml:space="preserve">
<path fill="#4D8CC5" d="M56.1,1c0-0.7-0.8-1.3-1.4-0.8L4.5,27.8l0,0l-3.7,2.1c-1.1,0.6-1.1,2.4,0,3.1l3.7,2.1l0,0l50.2,27.6
	c0.6,0.3,1.4-0.1,1.4-0.8v-5.1c0-0.3-0.1-0.7-0.6-0.8L12.7,32.4c-0.6-0.4-0.6-1.4,0-1.7L55.6,6.9c0.3-0.1,0.6-0.6,0.6-0.8L56.1,1
	L56.1,1z"/>
</svg>
