<?xml version="1.0" encoding="utf-8"?>
<!-- Generator: Adobe Illustrator 18.0.0, SVG Export Plug-In . SVG Version: 6.00 Build 0)  -->
<!DOCTYPE svg PUBLIC "-//W3C//DTD SVG 1.1//EN" "http://www.w3.org/Graphics/SVG/1.1/DTD/svg11.dtd">
<svg version="1.1" id="Layer_1" xmlns="http://www.w3.org/2000/svg" xmlns:xlink="http://www.w3.org/1999/xlink" x="0px" y="0px"
	 viewBox="0 0 56.1 62.9" enable-background="new 0 0 56.1 62.9" xml:space="preserve">
<path fill="#4D8CC5" d="M19.9,23.1c0,0.3,0.3,0.7,0.6,0.8l42.9,23.8c0.6,0.3,0.6,1.3,0,1.7L20.5,73.1c-0.4,0.1-0.6,0.6-0.6,0.8V79
	c0,0.7,0.8,1.1,1.4,0.8l50.2-27.6l0,0l3.7-2.1c1.1-0.7,1.1-2.5,0-3.1l-3.7-2.1l0,0L21.3,17.2c-0.6-0.4-1.4,0.1-1.4,0.8
	C19.9,18.1,19.9,23.1,19.9,23.1z"/>
</svg>
