<?xml version="1.0" encoding="utf-8"?>
<!-- Generator: Adobe Illustrator 18.0.0, SVG Export Plug-In . SVG Version: 6.00 Build 0)  -->
<!DOCTYPE svg PUBLIC "-//W3C//DTD SVG 1.1//EN" "http://www.w3.org/Graphics/SVG/1.1/DTD/svg11.dtd">
<svg version="1.1" id="Layer_1" xmlns="http://www.w3.org/2000/svg" xmlns:xlink="http://www.w3.org/1999/xlink" x="0px" y="0px"
	 viewBox="0 0 1262 542" enable-background="new 0 0 1262 542" xml:space="preserve">
<g>
	<g>
		<path fill="#FFFFFF" d="M170.3,404.4v55.5h-37c-35,0-52-4-72.5-16.5c-11.5-7.5-22-17-30-28.5c-14.5-19.5-23.5-46-23.5-70
			c0-38,20.5-77.5,51-98c19-13,39.5-18.5,69-18.5h43v54.5h-23.5c-45.5,0-73.5,23-73.5,61.5s26.5,60,73,60H170.3z"/>
		<path fill="#FFFFFF" d="M437.8,459.9h-63.5V357.4c0-45.5-22-73-59.5-73c-32,0-58,27-58,59.5c0,33,26,59.5,57.5,59.5
			c14.5,0,27-5,44.5-18.5v64c-18,13-31.5,17.5-53,17.5c-63,0-115-55-115-121.5c0-68.5,55-123,124.5-123c71,0,122.5,54,122.5,128
			V459.9z"/>
		<path fill="#FFFFFF" d="M624.8,228.4h63.5v131c0,66-40.5,107-104.5,107c-66,0-105.5-41-105.5-108.5V228.4h63v120.5
			c0,35.5,15,54.5,41.5,54.5c28,0,42-19,42-57.5V228.4z"/>
		<path fill="#FFFFFF" d="M787.8,284.4v78.5c0,32.5,10,41.5,44,41.5h19.5v55.5h-26.5c-39.5,0-54-3.5-72-16.5c-20.5-15.5-28-35-28-74
			v-213h63v73h63.5v55H787.8z"/>
		<path fill="#FFFFFF" d="M971.7,158.4c0,22.5-18,41-40,41c-23,0-42-18.5-42-41.5c0-22.5,18.5-40.5,41-40.5S971.7,135.4,971.7,158.4
			z M963.2,459.9h-65V228.4h65V459.9z"/>
		<path fill="#FFFFFF" d="M1254.2,344.4c0,67-55.5,122-123.5,122c-69,0-124.5-55-124.5-122.5s55.5-122,123.5-122
			C1198.7,221.9,1254.2,276.9,1254.2,344.4z M1188.2,344.9c0-33.5-26-60.5-58-60.5s-58,26.5-58,59.5s26,59.5,58.5,59.5
			C1162.2,403.4,1188.2,376.9,1188.2,344.9z"/>
	</g>
	<g>
		<path fill="#FFFFFF" d="M999.9,62.1l-24.5,44.7c0,0,8.5,5.1,11.6,7.4c3,2.3,12.8,10,12.8,10l34.6-37.5c0,0-11.6-10-15.6-12.9
			C1014.2,70.5,999.9,62.1,999.9,62.1z"/>
		<path fill="#FFFFFF" d="M911.1,49.2l5.8,50.6c0,0,9.9-0.8,13.7-0.7c3.7,0.1,16.2,0.7,16.2,0.7l6.6-50.6c0,0-15.2-1.5-20.2-1.5
			C927.6,47.8,911.1,49.2,911.1,49.2z"/>
		<path fill="#FFFFFF" d="M831,85.7l33.3,38.6c0,0,7.7-6.2,11-8.3c3.2-2,13.8-8.5,13.8-8.5l-23-45.5c0,0-13.4,7.3-17.5,10.1
			C843.9,75.3,831,85.7,831,85.7z"/>
	</g>
</g>
</svg>
