<?xml version="1.0" encoding="utf-8"?>
<!-- Generator: Adobe Illustrator 18.0.0, SVG Export Plug-In . SVG Version: 6.00 Build 0)  -->
<!DOCTYPE svg PUBLIC "-//W3C//DTD SVG 1.1//EN" "http://www.w3.org/Graphics/SVG/1.1/DTD/svg11.dtd">
<svg version="1.1" id="Layer_1" xmlns="http://www.w3.org/2000/svg" xmlns:xlink="http://www.w3.org/1999/xlink" x="0px" y="0px"
	 viewBox="0 0 96.5 79.4" enable-background="new 0 0 96.5 79.4" xml:space="preserve">
<g>
	<path fill="#4D8CC5" d="M1.7,6.5v2c0,1.4,1.1,2.5,2.5,2.5h91.5c1.4,0,2.4-1.1,2.4-2.4V6.5c0-1.4-1.1-2.4-2.4-2.4H4.2
		C2.8,4.1,1.7,5.2,1.7,6.5z"/>
</g>
<path fill="#4D8CC5" d="M4.2,29.1h91.5c1.4,0,2.4-1.1,2.4-2.4v-2c0-1.4-1.1-2.4-2.4-2.4H4.2c-1.4,0-2.4,1.1-2.4,2.4v2
	C1.7,27.9,2.8,29.1,4.2,29.1z"/>
<path fill="#4D8CC5" d="M4.2,47.2h91.5c1.4,0,2.4-1.1,2.4-2.4v-2c0-1.4-1.1-2.4-2.4-2.4H4.2c-1.4,0-2.4,1.1-2.4,2.4v2
	C1.7,46.1,2.8,47.2,4.2,47.2z"/>
<path fill="#4D8CC5" d="M4.2,65.4h91.5c1.4,0,2.4-1.1,2.4-2.4v-2c0-1.4-1.1-2.4-2.4-2.4H4.2c-1.4,0-2.4,1.1-2.4,2.4v2
	C1.7,64.3,2.8,65.4,4.2,65.4z"/>
<path fill="#4D8CC5" d="M4.2,83.5h91.5c1.4,0,2.4-1.1,2.4-2.4v-2c0-1.4-1.1-2.4-2.4-2.4H4.2c-1.4,0-2.4,1.1-2.4,2.4v2
	C1.7,82.4,2.8,83.5,4.2,83.5z"/>
</svg>
